<svg viewBox="0 0 200 200" xml:space="preserve" xmlns="http://www.w3.org/2000/svg" enable-background="new 0 0 200 200"><linearGradient gradientUnits="userSpaceOnUse" id="a" x1="164.023" x2="19.648" y1="164.02" y2="19.645"><stop offset="0" stop-color="#b65dff" class="stop-color-007fe2"></stop><stop offset="1" stop-color="#31e1f7" class="stop-color-39d3b8"></stop></linearGradient><path d="M173.475 84.885a74.68 74.68 0 0 0-4.37-14.084 75.136 75.136 0 0 0-6.917-12.742 3.471 3.471 0 1 0-5.753 3.888 67.58 67.58 0 0 1 10.237 24.33 68.53 68.53 0 0 1 1.383 13.719 68.55 68.55 0 0 1-1.383 13.721 67.594 67.594 0 0 1-10.237 24.33 68.608 68.608 0 0 1-8.312 10.075 68.611 68.611 0 0 1-10.075 8.313 67.68 67.68 0 0 1-24.329 10.238 69.071 69.071 0 0 1-27.439 0 67.68 67.68 0 0 1-24.329-10.238 3.472 3.472 0 1 0-3.887 5.754 74.589 74.589 0 0 0 26.824 11.288C89.83 174.487 94.914 175 100 175s10.17-.513 15.111-1.524a74.589 74.589 0 0 0 26.824-11.287 75.432 75.432 0 0 0 20.253-20.253 75.107 75.107 0 0 0 6.917-12.743 74.716 74.716 0 0 0 4.37-14.083A75.464 75.464 0 0 0 175 99.997c0-5.088-.513-10.173-1.525-15.112z" fill="url(#a)" class="fillurl(-a)"></path><linearGradient gradientUnits="userSpaceOnUse" id="b" x1="164.023" x2="19.648" y1="164.02" y2="19.645"><stop offset="0" stop-color="#b65dff" class="stop-color-007fe2"></stop><stop offset="1" stop-color="#31e1f7" class="stop-color-39d3b8"></stop></linearGradient><path d="M37.291 73.506a68.019 68.019 0 0 1 6.273-11.559 68.52 68.52 0 0 1 18.388-18.388 68.015 68.015 0 0 1 11.56-6.274 67.602 67.602 0 0 1 12.769-3.964 69.071 69.071 0 0 1 27.439 0 67.66 67.66 0 0 1 24.329 10.238 3.473 3.473 0 0 0 3.887-5.754 74.601 74.601 0 0 0-26.824-11.288c-9.882-2.022-20.34-2.022-30.222 0a74.569 74.569 0 0 0-26.824 11.288 75.502 75.502 0 0 0-11.098 9.157 75.59 75.59 0 0 0-9.157 11.098 75.033 75.033 0 0 0-6.916 12.742 74.694 74.694 0 0 0-4.371 14.084A75.536 75.536 0 0 0 25 99.996c0 5.085.513 10.17 1.523 15.113a74.848 74.848 0 0 0 4.371 14.083 75.033 75.033 0 0 0 6.916 12.742 3.467 3.467 0 0 0 4.821.934 3.471 3.471 0 0 0 .933-4.821 68.057 68.057 0 0 1-6.273-11.559 67.806 67.806 0 0 1-3.965-12.771 68.645 68.645 0 0 1-1.382-13.721c0-4.619.465-9.234 1.382-13.719a67.861 67.861 0 0 1 3.965-12.771z" fill="url(#b)" class="fillurl(-b)"></path><linearGradient gradientUnits="userSpaceOnUse" id="c" x1="173.198" x2="28.823" y1="154.845" y2="10.47"><stop offset="0" stop-color="#b65dff" class="stop-color-007fe2"></stop><stop offset="1" stop-color="#31e1f7" class="stop-color-39d3b8"></stop></linearGradient><path d="M100 59.824a3.471 3.471 0 0 0-3.472 3.472v36.7c0 .228.024.455.068.68.021.104.059.2.089.301.034.116.061.234.108.347.05.12.117.229.18.342.047.085.084.174.139.256a3.5 3.5 0 0 0 .437.534l25.946 25.948a3.462 3.462 0 0 0 2.455 1.017 3.472 3.472 0 0 0 2.455-5.927L103.473 98.56V63.296A3.473 3.473 0 0 0 100 59.824z" fill="url(#c)" class="fillurl(-c)"></path></svg>